<svg xmlns="http://www.w3.org/2000/svg" viewBox="0 0 900 900" role="img" aria-labelledby="title">
  <title id="title">Criança colorindo pôster de futebol depois da compra</title>
  <defs><linearGradient id="g" x1="0" y1="0" x2="1" y2="1"><stop offset="0" stop-color="#8cdc1c"/><stop offset="1" stop-color="#ffd33a"/></linearGradient></defs>
  <rect width="900" height="900" fill="#f8fff0"/>
  <circle cx="450" cy="410" r="300" fill="#eaf7d8"/>
  <rect x="185" y="365" width="530" height="345" rx="30" fill="#ffffff" stroke="#ccd9c3" stroke-width="7"/>
  <rect x="228" y="400" width="444" height="63" rx="15" fill="#102416"/>
  <text x="450" y="445" text-anchor="middle" font-family="Impact, Arial Black, sans-serif" font-size="42" fill="#ffd33a">MEU PÔSTER</text>
  <g fill="none" stroke="#101510" stroke-linecap="round" stroke-linejoin="round" stroke-width="10">
    <circle cx="450" cy="530" r="46"/>
    <path d="M404 646c15-70 78-75 95-1"/>
    <path d="M388 592c42 28 85 28 126 0"/>
    <path d="M388 646h124l30 57H358Z"/>
  </g>
  <g fill="none" stroke-linecap="round" stroke-width="22">
    <path d="M284 748c75 16 153 16 236 0" stroke="#ffd33a"/>
    <path d="M568 728l82-98" stroke="#8cdc1c"/>
    <path d="M604 760l74-76" stroke="#ffb90b"/>
  </g>
  <g fill="none" stroke="#101510" stroke-linecap="round" stroke-linejoin="round" stroke-width="15">
    <circle cx="450" cy="185" r="68" fill="#fff"/>
    <path d="M343 337c26-76 188-76 214 0"/>
    <path d="M370 238c57 39 104 39 160 0"/>
    <path d="M414 180h.1M486 180h.1"/>
    <path d="M405 224c34 30 62 30 92 0"/>
  </g>
  <text x="450" y="95" text-anchor="middle" font-family="Impact, Arial Black, sans-serif" font-size="82" fill="#175f1d">DIVERSÃO</text>
  <text x="450" y="165" text-anchor="middle" font-family="Impact, Arial Black, sans-serif" font-size="70" fill="#eea800">DE VERDADE</text>
  <text x="450" y="830" text-anchor="middle" font-family="Manrope, Arial, sans-serif" font-size="30" font-weight="800" fill="#175f1d">Lápis, futebol e orgulho longe do celular.</text>
</svg>
