<svg xmlns="http://www.w3.org/2000/svg" viewBox="0 0 1000 760" role="img" aria-labelledby="title">
  <title id="title">Kit digital Craques do Mundo</title>
  <defs><linearGradient id="gold" x1="0" y1="0" x2="1" y2="1"><stop offset="0" stop-color="#fff1a8"/><stop offset=".55" stop-color="#ffd33a"/><stop offset="1" stop-color="#eea800"/></linearGradient><linearGradient id="green" x1="0" y1="0" x2="1" y2="1"><stop offset="0" stop-color="#8cdc1c"/><stop offset="1" stop-color="#175f1d"/></linearGradient><filter id="s"><feDropShadow dx="0" dy="22" stdDeviation="16" flood-color="#000" flood-opacity=".35"/></filter></defs>
  <rect width="1000" height="760" rx="52" fill="#071008"/>
  <circle cx="770" cy="140" r="170" fill="#ffd33a" opacity=".14"/>
  <circle cx="210" cy="610" r="210" fill="#8cdc1c" opacity=".12"/>
  <g filter="url(#s)">
    <rect x="175" y="95" width="360" height="520" rx="26" fill="#fff" transform="rotate(-10 355 355)"/>
    <rect x="280" y="75" width="360" height="520" rx="26" fill="#fff" transform="rotate(4 460 335)"/>
    <rect x="415" y="118" width="360" height="520" rx="26" fill="#fdfdf7" stroke="#d8decf" stroke-width="7"/>
    <rect x="444" y="152" width="302" height="64" rx="15" fill="#102416"/>
    <text x="595" y="196" text-anchor="middle" font-family="Impact, Arial Black" font-size="38" fill="url(#gold)">KIT COMPLETO</text>
    <g fill="none" stroke="#111" stroke-width="8" stroke-linecap="round" stroke-linejoin="round">
      <circle cx="595" cy="306" r="43"/>
      <path d="M546 427c12-64 86-67 98 0"/>
      <path d="M532 366c42 27 83 27 125 0"/>
      <path d="M531 427h128l31 108H500Z"/>
      <path d="M538 267c30-36 75-28 88 9"/>
    </g>
    <rect x="450" y="557" width="292" height="48" rx="16" fill="url(#green)"/>
    <text x="596" y="589" text-anchor="middle" font-family="Manrope, Arial" font-size="22" font-weight="900" fill="#071008">10 PÔSTERES • PDF</text>
  </g>
  <g transform="translate(120 566)" filter="url(#s)">
    <rect width="270" height="92" rx="24" fill="url(#gold)"/>
    <text x="135" y="38" text-anchor="middle" font-family="Impact, Arial Black" font-size="34" fill="#071008">DOWNLOAD</text>
    <text x="135" y="69" text-anchor="middle" font-family="Manrope, Arial" font-size="18" font-weight="900" fill="#071008">IMEDIATO</text>
  </g>
  <g transform="translate(720 555)" filter="url(#s)">
    <circle cx="72" cy="72" r="70" fill="url(#green)"/>
    <text x="72" y="66" text-anchor="middle" font-family="Impact, Arial Black" font-size="28" fill="#071008">A2</text>
    <text x="72" y="96" text-anchor="middle" font-family="Impact, Arial Black" font-size="28" fill="#071008">A4</text>
  </g>
  <text x="500" y="70" text-anchor="middle" font-family="Impact, Arial Black" font-size="54" fill="#fff">CRAQUES DO MUNDO</text>
  <text x="500" y="710" text-anchor="middle" font-family="Manrope, Arial" font-size="28" font-weight="900" fill="#dcead5">Arquivos prontos para baixar, imprimir, montar e colorir.</text>
</svg>
