<svg xmlns="http://www.w3.org/2000/svg" viewBox="0 0 900 280" role="img" aria-labelledby="title desc">
  <title id="title">Craques do Mundo</title>
  <desc id="desc">Logo do produto Craques do Mundo</desc>
  <defs>
    <linearGradient id="g" x1="0" y1="0" x2="1" y2="1">
      <stop offset="0" stop-color="#8cdc1c"/>
      <stop offset="0.55" stop-color="#ffd33a"/>
      <stop offset="1" stop-color="#ffb90b"/>
    </linearGradient>
    <filter id="shadow" x="-20%" y="-20%" width="140%" height="140%">
      <feDropShadow dx="0" dy="12" stdDeviation="10" flood-color="#000" flood-opacity=".35"/>
    </filter>
  </defs>
  <rect width="900" height="280" rx="42" fill="#071008"/>
  <path d="M105 34 211 72v75c0 66-43 123-106 143C42 270 0 213 0 147V72L105 34Z" transform="translate(54 -8) scale(.9)" fill="#102416" stroke="url(#g)" stroke-width="10" filter="url(#shadow)"/>
  <circle cx="150" cy="128" r="54" fill="#fff" stroke="#071008" stroke-width="8"/>
  <path d="M150 78 174 99l-9 29h-30l-9-29 24-21Z" fill="#071008"/>
  <path d="m96 125 31 3 10 31-23 22-32-13 4-34Zm108 0 10 9 4 34-32 13-23-22 10-31 31-3Zm-54 37 24 17-9 31h-30l-9-31 24-17Z" fill="#071008" opacity=".95"/>
  <text x="238" y="112" font-family="Impact, 'Bebas Neue', Arial Black, sans-serif" font-size="74" letter-spacing="3" fill="#ffffff">CRAQUES</text>
  <text x="238" y="181" font-family="Impact, 'Bebas Neue', Arial Black, sans-serif" font-size="72" letter-spacing="3" fill="url(#g)">DO MUNDO</text>
  <text x="241" y="222" font-family="Manrope, Arial, sans-serif" font-size="25" font-weight="800" letter-spacing="2" fill="#dcead5">PÔSTERES GIGANTES PARA COLORIR</text>
</svg>
