<svg xmlns="http://www.w3.org/2000/svg" viewBox="0 0 1000 760" role="img" aria-labelledby="title">
  <title id="title">Menino pintando um pôster gigante de futebol</title>
  <defs><linearGradient id="g" x1="0" y1="0" x2="1" y2="1"><stop offset="0" stop-color="#8cdc1c"/><stop offset="1" stop-color="#ffd33a"/></linearGradient><filter id="s"><feDropShadow dx="0" dy="18" stdDeviation="14" flood-color="#000" flood-opacity=".22"/></filter></defs>
  <rect width="1000" height="760" rx="46" fill="#f7f8f3"/>
  <circle cx="750" cy="170" r="140" fill="#fff2bd"/>
  <circle cx="220" cy="560" r="160" fill="#e1f4c8"/>
  <g filter="url(#s)">
    <rect x="300" y="95" width="540" height="475" rx="28" fill="#fff" stroke="#d7ddcf" stroke-width="8"/>
    <rect x="340" y="132" width="460" height="68" rx="14" fill="#102416"/>
    <text x="570" y="178" text-anchor="middle" font-family="Impact, Arial Black" font-size="42" fill="#ffd33a">CRAQUE PARA COLORIR</text>
    <g fill="none" stroke="#121812" stroke-linecap="round" stroke-linejoin="round" stroke-width="9">
      <circle cx="570" cy="302" r="44"/>
      <path d="M515 430c16-65 98-68 112 0"/>
      <path d="M500 365c48 31 94 31 140 0"/>
      <path d="M502 431h136l37 102H465Z"/>
      <path d="M492 482l-45 55M646 482l45 55M535 534l-22 44M605 534l23 44"/>
      <path d="M531 264c30-37 75-29 86 11"/>
    </g>
  </g>
  <g transform="translate(95 190)">
    <circle cx="165" cy="105" r="67" fill="#ffe2bf" stroke="#121812" stroke-width="10"/>
    <path d="M103 104c35-70 125-69 125-7-41-26-85-26-125 7Z" fill="#2c2016"/>
    <path d="M135 111h.1M192 111h.1" stroke="#121812" stroke-width="13" stroke-linecap="round"/>
    <path d="M142 142c25 22 50 22 75 0" fill="none" stroke="#121812" stroke-width="8" stroke-linecap="round"/>
    <path d="M73 300c34-104 157-126 221-38l68 92-72 49-60-74-14 171H105l-15-170-58 70-70-44Z" fill="url(#g)" stroke="#121812" stroke-width="10" stroke-linejoin="round"/>
    <path d="M290 403c58 20 117 15 167-18" fill="none" stroke="#121812" stroke-width="14" stroke-linecap="round"/>
    <path d="M420 374l216-120 26 48-222 106Z" fill="#ffd33a" stroke="#121812" stroke-width="9" stroke-linejoin="round"/>
    <path d="M641 252l55-32-8 65Z" fill="#ff7a00" stroke="#121812" stroke-width="8"/>
  </g>
  <text x="500" y="700" text-anchor="middle" font-family="Manrope, Arial" font-size="32" font-weight="900" fill="#175f1d">Imprima, monte e deixe a criança pintar.</text>
</svg>
