<svg xmlns="http://www.w3.org/2000/svg" viewBox="0 0 1400 120" preserveAspectRatio="none" role="img" aria-label="Faixa de bandeirinhas esportivas">
  <rect width="1400" height="120" fill="#071008"/>
  <path d="M0 22C180 58 320 58 500 22s320-36 500 0 280 36 400 0" fill="none" stroke="#ffd33a" stroke-width="7" opacity=".9"/>
  <g font-family="Impact, Arial Black, sans-serif" font-size="20" text-anchor="middle" font-weight="900">
    <g transform="translate(40 26)"><path d="M0 0h86v76L43 52 0 76Z" fill="#009b3a"/><circle cx="43" cy="29" r="19" fill="#ffdf00"/><text x="43" y="37" fill="#071008">BR</text></g>
    <g transform="translate(150 34)"><path d="M0 0h86v76L43 52 0 76Z" fill="#74acdf"/><rect y="25" width="86" height="24" fill="#fff"/><text x="43" y="44" fill="#071008">AR</text></g>
    <g transform="translate(260 24)"><path d="M0 0h86v76L43 52 0 76Z" fill="#003399"/><rect width="29" height="76" fill="#0055a4"/><rect x="57" width="29" height="76" fill="#ef4135"/><text x="43" y="43" fill="#fff">FR</text></g>
    <g transform="translate(370 36)"><path d="M0 0h86v76L43 52 0 76Z" fill="#006600"/><rect width="43" height="76" fill="#ff0000" opacity=".92"/><text x="43" y="43" fill="#fff">PT</text></g>
    <g transform="translate(480 25)"><path d="M0 0h86v76L43 52 0 76Z" fill="#111"/><rect y="25" width="86" height="25" fill="#dd0000"/><rect y="50" width="86" height="26" fill="#ffce00"/><text x="43" y="43" fill="#fff">DE</text></g>
    <g transform="translate(590 35)"><path d="M0 0h86v76L43 52 0 76Z" fill="#aa151b"/><rect y="20" width="86" height="36" fill="#f1bf00"/><text x="43" y="43" fill="#071008">ES</text></g>
    <g transform="translate(700 24)"><path d="M0 0h86v76L43 52 0 76Z" fill="#2c5aa0"/><text x="43" y="43" fill="#fff">KIT</text></g>
    <g transform="translate(810 36)"><path d="M0 0h86v76L43 52 0 76Z" fill="#8cdc1c"/><text x="43" y="43" fill="#071008">A2</text></g>
    <g transform="translate(920 25)"><path d="M0 0h86v76L43 52 0 76Z" fill="#ffd33a"/><text x="43" y="43" fill="#071008">A4</text></g>
    <g transform="translate(1030 35)"><path d="M0 0h86v76L43 52 0 76Z" fill="#175f1d"/><text x="43" y="43" fill="#fff">PDF</text></g>
    <g transform="translate(1140 26)"><path d="M0 0h86v76L43 52 0 76Z" fill="#fff"/><text x="43" y="43" fill="#071008">10</text></g>
    <g transform="translate(1250 34)"><path d="M0 0h86v76L43 52 0 76Z" fill="#ffb90b"/><text x="43" y="43" fill="#071008">GOL</text></g>
  </g>
</svg>
