<svg xmlns="http://www.w3.org/2000/svg" viewBox="0 0 900 900" role="img" aria-labelledby="title desc">
  <title id="title">Kit de pôsteres gigantes para colorir</title>
  <desc id="desc">Montagem visual com pôsteres de futebol para colorir em folhas A4</desc>
  <defs>
    <linearGradient id="gold" x1="0" y1="0" x2="1" y2="1"><stop offset="0" stop-color="#fff1a8"/><stop offset=".55" stop-color="#ffd33a"/><stop offset="1" stop-color="#eea800"/></linearGradient>
    <linearGradient id="green" x1="0" y1="0" x2="1" y2="1"><stop offset="0" stop-color="#8cdc1c"/><stop offset="1" stop-color="#175f1d"/></linearGradient>
    <filter id="s" x="-20%" y="-20%" width="140%" height="140%"><feDropShadow dx="0" dy="24" stdDeviation="20" flood-color="#000" flood-opacity=".38"/></filter>
  </defs>
  <circle cx="455" cy="456" r="355" fill="#102416" opacity=".88"/>
  <circle cx="455" cy="456" r="405" fill="none" stroke="#8cdc1c" stroke-width="3" stroke-dasharray="10 18" opacity=".45"/>
  <g filter="url(#s)">
    <rect x="210" y="105" width="415" height="620" rx="26" fill="#fff" transform="rotate(-7 417 415)"/>
    <rect x="258" y="75" width="415" height="620" rx="26" fill="#fff" transform="rotate(6 465 385)"/>
    <rect x="292" y="135" width="420" height="610" rx="28" fill="#fdfdf7" stroke="#d8decf" stroke-width="6"/>
    <rect x="322" y="166" width="360" height="82" rx="18" fill="#071008"/>
    <text x="502" y="218" text-anchor="middle" font-family="Impact, Arial Black, sans-serif" font-size="48" fill="url(#gold)" letter-spacing="2">CRAQUE</text>
    <g fill="none" stroke="#111" stroke-width="8" stroke-linecap="round" stroke-linejoin="round">
      <circle cx="502" cy="342" r="54"/>
      <path d="M448 503c11-83 97-85 110 0"/>
      <path d="M416 411c57 38 122 38 173 0"/>
      <path d="M426 496h154l42 140H386Z"/>
      <path d="M390 536l-62 80M614 536l62 80M451 641l-34 58M553 641l35 58"/>
      <path d="M442 294c32-46 104-33 121 17"/>
      <path d="m462 357 36 24 41-24"/>
    </g>
    <rect x="324" y="667" width="356" height="44" rx="14" fill="url(#green)"/>
    <text x="502" y="698" text-anchor="middle" font-family="Manrope, Arial, sans-serif" font-size="22" font-weight="900" fill="#071008">PÔSTER A2 • 4 FOLHAS A4</text>
  </g>
  <g transform="translate(78 598) rotate(-9)" filter="url(#s)">
    <rect width="212" height="170" rx="24" fill="#071008" stroke="url(#gold)" stroke-width="8"/>
    <text x="106" y="58" text-anchor="middle" font-family="Impact, Arial Black, sans-serif" font-size="34" fill="#fff">PDF</text>
    <text x="106" y="103" text-anchor="middle" font-family="Impact, Arial Black, sans-serif" font-size="38" fill="url(#gold)">IMEDIATO</text>
    <text x="106" y="136" text-anchor="middle" font-family="Arial" font-size="16" fill="#d9ead2">Baixe e imprima</text>
  </g>
  <g transform="translate(650 620) rotate(10)" filter="url(#s)">
    <circle cx="82" cy="82" r="78" fill="url(#gold)"/>
    <circle cx="82" cy="82" r="56" fill="#071008"/>
    <text x="82" y="75" text-anchor="middle" font-family="Impact, Arial Black" font-size="26" fill="#fff">SEM</text>
    <text x="82" y="107" text-anchor="middle" font-family="Impact, Arial Black" font-size="31" fill="#8cdc1c">TELAS</text>
  </g>
</svg>
